<svg width="21" height="22" viewBox="0 0 21 22" fill="none" xmlns="http://www.w3.org/2000/svg">
<path d="M1.96411 5H3.96411H19.9641" stroke="#DC2626" stroke-width="2" stroke-linecap="round" stroke-linejoin="round"/>
<path d="M6.96411 5V3C6.96411 2.46957 7.17483 1.96086 7.5499 1.58579C7.92497 1.21071 8.43368 1 8.96411 1H12.9641C13.4945 1 14.0033 1.21071 14.3783 1.58579C14.7534 1.96086 14.9641 2.46957 14.9641 3V5M17.9641 5V19C17.9641 19.5304 17.7534 20.0391 17.3783 20.4142C17.0033 20.7893 16.4945 21 15.9641 21H5.96411C5.43368 21 4.92497 20.7893 4.5499 20.4142C4.17482 20.0391 3.96411 19.5304 3.96411 19V5H17.9641Z" stroke="#DC2626" stroke-width="2" stroke-linecap="round" stroke-linejoin="round"/>
<path d="M8.96411 10V16" stroke="#DC2626" stroke-width="2" stroke-linecap="round" stroke-linejoin="round"/>
<path d="M12.9641 10V16" stroke="#DC2626" stroke-width="2" stroke-linecap="round" stroke-linejoin="round"/>
</svg>
